<?xml version="1.0" encoding="UTF-8" standalone="no"?>
<svg
   viewBox="0 0 96 96"
   style="zoom: 1;"
   width="96(null)"
   height="96(null)"
   version="1.1"
   id="svg32"
   sodipodi:docname="yarn_logo.svg"
   inkscape:version="1.2 (dc2aedaf03, 2022-05-15)"
   xmlns:inkscape="http://www.inkscape.org/namespaces/inkscape"
   xmlns:sodipodi="http://sodipodi.sourceforge.net/DTD/sodipodi-0.dtd"
   xmlns="http://www.w3.org/2000/svg"
   xmlns:svg="http://www.w3.org/2000/svg">
  <defs
     id="defs36" />
  <sodipodi:namedview
     id="namedview34"
     pagecolor="#505050"
     bordercolor="#eeeeee"
     borderopacity="1"
     inkscape:showpageshadow="0"
     inkscape:pageopacity="0"
     inkscape:pagecheckerboard="0"
     inkscape:deskcolor="#505050"
     showgrid="false"
     inkscape:zoom="6.4597151"
     inkscape:cx="30.651507"
     inkscape:cy="48.376747"
     inkscape:window-width="1920"
     inkscape:window-height="1052"
     inkscape:window-x="-8"
     inkscape:window-y="-8"
     inkscape:window-maximized="1"
     inkscape:current-layer="svg32" />
  <rect
     style="fill:#202b38;fill-opacity:1"
     id="rect317"
     width="95.979462"
     height="95.979462"
     x="-0.15480559"
     y="-0.15480559"
     inkscape:export-filename="yarn_icon_1024.png"
     inkscape:export-xdpi="1024.2191"
     inkscape:export-ydpi="1024.2191" />
  <g
     transform="matrix(0.6136876,0,0,0.6136876,21.864273,19.477641)"
     id="g30"
     inkscape:export-filename="yarn_back_1024.png"
     inkscape:export-xdpi="1024.2191"
     inkscape:export-ydpi="1024.2191">
    <circle
       fill-opacity="0"
       cx="42.588001"
       cy="46.477001"
       r="42.477001"
       id="circle20" />
    <path
       fill="#55acee"
       d="m 26.227,72.198 c -7.472,0 -12.377,-0.899 -12.742,-0.967 -1.438,-0.276 -2.383,-1.662 -2.111,-3.099 0.271,-1.442 1.659,-2.389 3.096,-2.12 0.157,0.034 15.553,2.821 33.401,-1.857 17.818,-4.674 28.277,-14.538 28.382,-14.636 1.052,-1.014 2.735,-0.978 3.754,0.082 1.012,1.061 0.976,2.74 -0.085,3.754 -0.463,0.444 -11.565,10.915 -30.703,15.938 -8.687,2.273 -16.74,2.905 -22.992,2.905 z"
       id="path22" />
    <path
       fill="#55acee"
       d="m 21.707,62.962 c -9.109,0 -15.778,-1.01 -16.267,-1.085 -1.447,-0.226 -2.436,-1.582 -2.211,-3.032 0.223,-1.447 1.573,-2.431 3.03,-2.216 0.2,0.034 20.423,3.075 38.344,-1.627 17.847,-4.679 32.779,-18.306 32.93,-18.441 1.079,-0.992 2.756,-0.922 3.749,0.152 0.994,1.081 0.927,2.761 -0.154,3.754 -0.644,0.596 -16.064,14.661 -35.178,19.674 -8.375,2.197 -17.064,2.821 -24.243,2.821 z"
       id="path24" />
    <path
       fill="#55acee"
       d="M 19.216,52.373 C 10.974,52.373 5.23,51.45 4.802,51.381 3.358,51.142 2.381,49.777 2.618,48.331 c 0.235,-1.445 1.589,-2.448 3.05,-2.187 0.178,0.029 18.219,2.903 36.114,-1.79 17.821,-4.674 30.967,-17.105 31.094,-17.231 1.054,-1.013 2.74,-0.979 3.753,0.084 1.014,1.059 0.976,2.737 -0.081,3.751 -0.574,0.553 -14.282,13.516 -33.422,18.535 -8.602,2.249 -17.106,2.88 -23.91,2.88 z"
       id="path26" />
    <path
       fill="#55acee"
       d="m 19.873,42.67 c -1.272,0 -2.399,-0.918 -2.616,-2.213 -3.137,-18.668 3.854,-27.575 4.153,-27.942 0.923,-1.141 2.596,-1.317 3.732,-0.396 1.136,0.918 1.317,2.577 0.41,3.716 -0.113,0.149 -5.752,7.714 -3.059,23.74 0.241,1.444 -0.734,2.813 -2.181,3.058 -0.144,0.026 -0.295,0.037 -0.439,0.037 z m 11.225,-0.643 c -1.331,0 -2.479,-1.001 -2.632,-2.355 -2.469,-21.778 4.06,-30.994 4.342,-31.374 0.87,-1.185 2.526,-1.443 3.71,-0.574 1.175,0.862 1.437,2.51 0.588,3.692 -0.106,0.152 -5.562,8.283 -3.365,27.655 0.165,1.456 -0.882,2.772 -2.339,2.934 -0.101,0.018 -0.204,0.022 -0.304,0.022 z m 11.651,-2.956 c -1.32,0 -2.464,-0.987 -2.63,-2.327 -2.233,-17.976 2.9,-27.733 3.12,-28.137 0.701,-1.289 2.31,-1.77 3.597,-1.072 1.285,0.695 1.767,2.301 1.079,3.588 -0.095,0.18 -4.523,8.914 -2.533,24.968 0.182,1.455 -0.85,2.784 -2.304,2.962 -0.109,0.012 -0.219,0.018 -0.329,0.018 z m 12.335,-5.826 c -1.289,0 -2.421,-0.939 -2.621,-2.253 -2.02,-13.246 0.63,-19.603 0.743,-19.867 0.574,-1.35 2.149,-1.97 3.483,-1.388 1.341,0.575 1.965,2.126 1.399,3.466 -0.058,0.144 -2.124,5.553 -0.38,16.988 0.224,1.448 -0.771,2.803 -2.223,3.025 -0.13,0.021 -0.267,0.029 -0.401,0.029 z M 34.949,84.972 c -0.332,0 -0.67,-0.062 -0.996,-0.193 -3.274,-1.33 -6.285,-4.306 -6.617,-4.641 -1.029,-1.041 -1.022,-2.716 0.014,-3.753 1.039,-1.034 2.719,-1.028 3.754,0.01 0.699,0.702 2.924,2.686 4.846,3.465 1.359,0.551 2.013,2.097 1.461,3.458 -0.417,1.031 -1.414,1.654 -2.462,1.654 z m 15.14,0.413 c -0.465,0 -0.937,-0.12 -1.365,-0.377 -3.623,-2.18 -8.151,-6.62 -8.34,-6.805 -1.049,-1.03 -1.06,-2.711 -0.031,-3.755 1.031,-1.048 2.712,-1.056 3.756,-0.031 0.044,0.041 4.269,4.186 7.351,6.036 1.258,0.756 1.663,2.385 0.91,3.641 -0.501,0.832 -1.38,1.291 -2.281,1.291 z m 11.495,-4.462 c -0.425,0 -0.855,-0.1 -1.258,-0.319 -3.035,-1.635 -6.278,-5.123 -6.641,-5.517 -0.992,-1.077 -0.918,-2.755 0.159,-3.748 1.082,-0.984 2.757,-0.918 3.754,0.159 0.814,0.887 3.342,3.409 5.249,4.438 1.291,0.695 1.775,2.305 1.076,3.594 -0.482,0.886 -1.392,1.393 -2.339,1.393 z M 70.73,73.51 c -0.408,0 -0.821,-0.091 -1.205,-0.289 -1.605,-0.82 -3.42,-2.236 -3.622,-2.391 -1.154,-0.906 -1.35,-2.574 -0.445,-3.725 0.904,-1.149 2.575,-1.354 3.725,-0.451 0.437,0.343 1.788,1.344 2.756,1.84 1.309,0.666 1.824,2.268 1.158,3.574 -0.471,0.912 -1.401,1.442 -2.367,1.442 z M 8.627,43.122 c -1.308,0 -2.445,-0.967 -2.626,-2.299 -0.948,-6.989 0.913,-13.616 2.393,-16.37 0.696,-1.289 2.307,-1.772 3.598,-1.077 1.29,0.695 1.773,2.307 1.078,3.597 -0.937,1.736 -2.61,7.231 -1.809,13.136 0.198,1.452 -0.818,2.788 -2.273,2.986 -0.124,0.019 -0.242,0.027 -0.361,0.027 z M 66.053,28.369 c -1.25,0 -2.364,-0.889 -2.604,-2.16 -0.738,-3.901 -0.297,-8.357 0.524,-10.744 0.474,-1.383 1.982,-2.128 3.373,-1.648 1.386,0.478 2.126,1.988 1.648,3.374 -0.497,1.44 -0.924,4.883 -0.327,8.025 0.273,1.44 -0.672,2.83 -2.114,3.105 -0.17,0.033 -0.336,0.048 -0.5,0.048 z"
       id="path28" />
  </g>
</svg>
